<svg version="1.1" id="Layer_1" xmlns="http://www.w3.org/2000/svg" x="0" y="0" viewBox="0 0 55.68 38.88" xml:space="preserve"><style>.st6{fill:#009a39}.st7{fill:none;stroke:#010101;stroke-width:.216}</style><path d="M3.27.24H52.4c1.67 0 3.03 1.36 3.03 3.03V35.6c0 1.67-1.36 3.03-3.03 3.03H3.27A3.04 3.04 0 01.24 35.6V3.27C.24 1.6 1.6.24 3.27.24z" fill="#1c4294"/><path d="M55.44 26.58H.24V3.27C.24 1.6 1.6.24 3.27.24H52.4c1.67 0 3.03 1.36 3.03 3.03v23.31h.01z" fill="#fff"/><path d="M55.44 12.31H.24V3.27C.24 1.6 1.6.24 3.27.24H52.4c1.67 0 3.03 1.36 3.03 3.03v9.04h.01z" fill="#d62d1e"/><path d="M27.84 13.97c3.03 0 5.48 2.45 5.48 5.48 0 3.03-2.45 5.48-5.48 5.48-3.03 0-5.48-2.45-5.48-5.48 0-3.03 2.45-5.48 5.48-5.48h0z" fill="none" stroke="#010101" stroke-width=".14"/><path d="M27.84 14.94c2.49 0 4.5 2.01 4.5 4.5s-2.01 4.5-4.5 4.5-4.5-2.01-4.5-4.5a4.5 4.5 0 014.5-4.5h0z" fill="none" stroke="#010101" stroke-width=".062"/><path d="M27.84 16a3.45 3.45 0 11-.001 6.901A3.45 3.45 0 0127.84 16h0z" fill="none" stroke="#010101" stroke-width=".057"/><path class="st6" d="M28.56 16.89s2.08.9 1.72 2.75c-.36 1.85-1.52 1.84-1.98 2.05-.45.2-.77.5-.95.46-.18-.04-.42-.18-.42-.18s-.02.3.35.36.85-.48 1.08-.54c.23-.06 1.65-.21 1.99-2.1.41-2.02-1.77-2.74-1.79-2.8z"/><path class="st7" d="M28.56 16.89s2.08.9 1.72 2.75c-.36 1.85-1.52 1.84-1.98 2.05-.45.2-.77.5-.95.46-.18-.04-.42-.18-.42-.18s-.02.3.35.36.85-.48 1.08-.54c.23-.06 1.65-.21 1.99-2.1.41-2.02-1.77-2.74-1.79-2.8z"/><path class="st6" d="M29.12 21.38s-.06-.16-.06-.19c-.01-.04.06-.08.03-.18a.403.403 0 00-.16-.21c-.05-.03-.08.02-.04.15s.12.16.15.23c.03.06.06.16.07.22.05.03.14.12.2.16.06.05.13.21.24.28.09.06.18.05.16-.02a.454.454 0 00-.18-.21c-.07-.05-.16-.02-.22-.07s-.19-.15-.19-.16z"/><path class="st7" d="M29.12 21.38s-.06-.16-.06-.19c-.01-.04.06-.08.03-.18a.403.403 0 00-.16-.21c-.05-.03-.08.02-.04.15s.12.16.15.23c.03.06.06.16.07.22.05.03.14.12.2.16.06.05.13.21.24.28.09.06.18.05.16-.02a.454.454 0 00-.18-.21c-.07-.05-.16-.02-.22-.07s-.19-.15-.19-.16z"/><path class="st6" d="M27.38 17.39c-.2-.04-.52-.11-.72-.12.14-.15.33-.41.45-.57-.08.15-.2.35-.25.5.14.07.36.13.52.19z"/><path class="st7" d="M27.38 17.39c-.2-.04-.52-.11-.72-.12.14-.15.33-.41.45-.57-.08.15-.2.35-.25.5.14.07.36.13.52.19z"/><path class="st6" d="M26.78 17.29l.47-.36-.55.24-.04.11.12.01z"/><path class="st7" d="M26.78 17.29l.47-.36-.55.24-.04.11.12.01z"/><path class="st6" d="M27.28 17.38c-.21-.04-.52-.11-.72-.13.14-.16.32-.43.44-.59-.07.16-.19.36-.24.51.14.09.36.15.52.21z"/><path class="st7" d="M27.28 17.38c-.21-.04-.52-.11-.72-.13.14-.16.32-.43.44-.59-.07.16-.19.36-.24.51.14.09.36.15.52.21z"/><path class="st6" d="M26.7 17.32l.55-.23-.6.1-.08.1.13.03z"/><path class="st7" d="M26.7 17.32l.55-.23-.6.1-.08.1.13.03z"/><path class="st6" d="M27.22 17.39c-.21-.02-.53-.06-.73-.05.12-.18.27-.47.36-.65-.06.17-.15.39-.18.55.15.06.38.1.55.15z"/><path class="st7" d="M27.22 17.39c-.21-.02-.53-.06-.73-.05.12-.18.27-.47.36-.65-.06.17-.15.39-.18.55.15.06.38.1.55.15z"/><path class="st6" d="M26.64 17.32l.38-.45-.48.35-.02.12.12-.02z"/><path class="st7" d="M26.64 17.32l.38-.45-.48.35-.02.12.12-.02z"/><path class="st6" d="M27.22 17.42c-.22 0-.57-.02-.78 0 .11-.2.24-.53.32-.73-.04.19-.12.44-.13.61.16.05.41.08.59.12z"/><path class="st7" d="M27.22 17.42c-.22 0-.57-.02-.78 0 .11-.2.24-.53.32-.73-.04.19-.12.44-.13.61.16.05.41.08.59.12z"/><path class="st6" d="M26.57 17.43l.45-.44-.55.3-.04.13.14.01z"/><path class="st7" d="M26.57 17.43l.45-.44-.55.3-.04.13.14.01z"/><path class="st6" d="M27.12 17.43c-.24 0-.61-.01-.84.01.16-.22.37-.59.5-.81-.08.21-.22.48-.27.68.16.06.42.08.61.12z"/><path class="st7" d="M27.12 17.43c-.24 0-.61-.01-.84.01.16-.22.37-.59.5-.81-.08.21-.22.48-.27.68.16.06.42.08.61.12z"/><path class="st6" d="M26.42 17.46l.58-.49-.66.35-.07.14h.15z"/><path class="st7" d="M26.42 17.46l.58-.49-.66.35-.07.14h.15z"/><path class="st6" d="M27.03 17.45c-.24.03-.61.07-.83.13.12-.24.28-.63.38-.86-.05.21-.15.5-.17.7.17.03.43.01.62.03z"/><path class="st7" d="M27.03 17.45c-.24.03-.61.07-.83.13.12-.24.28-.63.38-.86-.05.21-.15.5-.17.7.17.03.43.01.62.03z"/><path class="st6" d="M26.34 17.56l.45-.62-.56.51-.03.15.14-.04z"/><path class="st7" d="M26.34 17.56l.45-.62-.56.51-.03.15.14-.04z"/><path class="st6" d="M26.9 17.52c-.24.02-.61.04-.84.09.14-.23.31-.61.42-.84-.07.21-.18.49-.21.69.18.04.44.04.63.06z"/><path class="st7" d="M26.9 17.52c-.24.02-.61.04-.84.09.14-.23.31-.61.42-.84-.07.21-.18.49-.21.69.18.04.44.04.63.06z"/><path class="st6" d="M26.26 17.63l.57-.49-.65.35-.07.15.15-.01z"/><path class="st7" d="M26.26 17.63l.57-.49-.65.35-.07.15.15-.01z"/><path class="st6" d="M26.83 17.54c-.24.05-.61.11-.84.19.11-.24.25-.64.34-.88-.04.21-.12.5-.14.7.18.03.44-.01.64-.01z"/><path class="st7" d="M26.83 17.54c-.24.05-.61.11-.84.19.11-.24.25-.64.34-.88-.04.21-.12.5-.14.7.18.03.44-.01.64-.01z"/><path class="st6" d="M26.16 17.65l.36-.68-.49.58-.01.15.14-.05z"/><path class="st7" d="M26.16 17.65l.36-.68-.49.58-.01.15.14-.05z"/><path class="st6" d="M26.83 17.58c-.26.07-.65.15-.9.25.09-.28.2-.72.26-.99-.02.24-.07.57-.07.78.21.02.5-.03.71-.04z"/><path class="st7" d="M26.83 17.58c-.26.07-.65.15-.9.25.09-.28.2-.72.26-.99-.02.24-.07.57-.07.78.21.02.5-.03.71-.04z"/><path class="st6" d="M26.09 17.81l.46-.68-.59.55-.02.17.15-.04z"/><path class="st7" d="M26.09 17.81l.46-.68-.59.55-.02.17.15-.04z"/><path class="st6" d="M26.73 17.66c-.25.08-.64.19-.88.29.08-.28.16-.72.22-1-.01.24-.05.57-.03.78.19.01.48-.05.69-.07z"/><path class="st7" d="M26.73 17.66c-.25.08-.64.19-.88.29.08-.28.16-.72.22-1-.01.24-.05.57-.03.78.19.01.48-.05.69-.07z"/><path class="st6" d="M26 17.91l.35-.75-.5.64v.17l.15-.06z"/><path class="st7" d="M26 17.91l.35-.75-.5.64v.17l.15-.06z"/><path class="st6" d="M26.63 17.76c-.26.06-.66.13-.9.22.1-.27.23-.71.31-.97-.03.24-.1.56-.1.77.19.02.48-.01.69-.02z"/><path class="st7" d="M26.63 17.76c-.26.06-.66.13-.9.22.1-.27.23-.71.31-.97-.03.24-.1.56-.1.77.19.02.48-.01.69-.02z"/><path class="st6" d="M25.92 17.98l.57-.59-.67.43-.05.16h.15z"/><path class="st7" d="M25.92 17.98l.57-.59-.67.43-.05.16h.15z"/><path class="st6" d="M26.52 17.86c-.26.03-.65.07-.89.13.12-.27.27-.7.36-.96-.05.24-.13.56-.14.78.18.05.46.04.67.05z"/><path class="st7" d="M26.52 17.86c-.26.03-.65.07-.89.13.12-.27.27-.7.36-.96-.05.24-.13.56-.14.78.18.05.46.04.67.05z"/><path class="st6" d="M25.8 17.92l.39-.73-.53.62-.01.17.15-.06z"/><path class="st7" d="M25.8 17.92l.39-.73-.53.62-.01.17.15-.06z"/><path class="st6" d="M26.55 17.78c-.28.11-.71.27-.97.41.09-.33.18-.85.23-1.17-.01.28-.05.66-.02.9.21-.01.52-.1.76-.14z"/><path class="st7" d="M26.55 17.78c-.28.11-.71.27-.97.41.09-.33.18-.85.23-1.17-.01.28-.05.66-.02.9.21-.01.52-.1.76-.14z"/><path class="st6" d="M25.75 18.14l.46-.84-.61.71-.02.2.17-.07z"/><path class="st7" d="M25.75 18.14l.46-.84-.61.71-.02.2.17-.07z"/><path class="st6" d="M26.44 17.88c-.27.13-.7.31-.95.46.07-.33.14-.85.18-1.17 0 .27-.02.65.02.89.21-.01.52-.13.75-.18z"/><path class="st7" d="M26.44 17.88c-.27.13-.7.31-.95.46.07-.33.14-.85.18-1.17 0 .27-.02.65.02.89.21-.01.52-.13.75-.18z"/><path class="st6" d="M25.66 18.27c-.01 0 .34-.9.34-.9l-.51.81.01.2.16-.11z"/><path class="st7" d="M25.66 18.27c-.01 0 .34-.9.34-.9l-.51.81.01.2.16-.11z"/><path class="st6" d="M26.32 17.96c-.27.13-.7.31-.95.47.07-.33.13-.85.17-1.17 0 .27-.01.65.02.89.23-.02.53-.14.76-.19z"/><path class="st7" d="M26.32 17.96c-.27.13-.7.31-.95.47.07-.33.13-.85.17-1.17 0 .27-.01.65.02.89.23-.02.53-.14.76-.19z"/><path class="st6" d="M25.58 18.38l.52-.8-.66.65-.03.2.17-.05z"/><path class="st7" d="M25.58 18.38l.52-.8-.66.65-.03.2.17-.05z"/><path class="st6" d="M26.3 17.91c-.24.19-.62.48-.84.69 0-.33-.05-.85-.07-1.16.06.26.12.63.21.85.2-.08.48-.26.7-.38z"/><path class="st7" d="M26.3 17.91c-.24.19-.62.48-.84.69 0-.33-.05-.85-.07-1.16.06.26.12.63.21.85.2-.08.48-.26.7-.38z"/><path class="st6" d="M25.6 18.41c-.01 0 .06-.96.06-.96l-.25.93.07.18.12-.15z"/><path class="st7" d="M25.6 18.41c-.01 0 .06-.96.06-.96l-.25.93.07.18.12-.15z"/><path class="st6" d="M26.23 18c-.24.19-.63.47-.85.68 0-.33-.04-.85-.07-1.16.06.26.12.63.2.85.22-.07.5-.26.72-.37z"/><path class="st7" d="M26.23 18c-.24.19-.63.47-.85.68 0-.33-.04-.85-.07-1.16.06.26.12.63.2.85.22-.07.5-.26.72-.37z"/><path class="st6" d="M25.54 18.58c-.01 0 .24-.93.24-.93l-.42.86.03.19.15-.12z"/><path class="st7" d="M25.54 18.58c-.01 0 .24-.93.24-.93l-.42.86.03.19.15-.12z"/><path class="st6" d="M26.2 18.02c-.23.23-.59.56-.8.8-.04-.34-.14-.86-.2-1.18.09.26.19.63.3.85.22-.1.49-.33.7-.47z"/><path class="st7" d="M26.2 18.02c-.23.23-.59.56-.8.8-.04-.34-.14-.86-.2-1.18.09.26.19.63.3.85.22-.1.49-.33.7-.47z"/><path class="st6" d="M25.55 18.7c-.01 0 .05-.99.05-.99l-.24.96.08.18.11-.15z"/><path class="st7" d="M25.55 18.7c-.01 0 .05-.99.05-.99l-.24.96.08.18.11-.15z"/><path class="st6" d="M26.13 18.19c-.25.2-.63.5-.85.72-.01-.35-.06-.88-.1-1.21.07.27.14.65.23.88.21-.07.5-.27.72-.39z"/><path class="st7" d="M26.13 18.19c-.25.2-.63.5-.85.72-.01-.35-.06-.88-.1-1.21.07.27.14.65.23.88.21-.07.5-.27.72-.39z"/><path class="st6" d="M25.47 18.81c-.01 0 .35-.93.35-.93l-.52.82.01.21.16-.1z"/><path class="st7" d="M25.47 18.81c-.01 0 .35-.93.35-.93l-.52.82.01.21.16-.1z"/><path class="st6" d="M26.12 18.19c-.22.23-.56.57-.75.82-.03-.35-.13-.87-.19-1.2.09.26.18.64.29.86.2-.11.45-.33.65-.48z"/><path class="st7" d="M26.12 18.19c-.22.23-.56.57-.75.82-.03-.35-.13-.87-.19-1.2.09.26.18.64.29.86.2-.11.45-.33.65-.48z"/><path class="st6" d="M25.49 18.86c-.01 0-.04-.99-.04-.99l-.16.98.09.17.11-.16z"/><path class="st7" d="M25.49 18.86c-.01 0-.04-.99-.04-.99l-.16.98.09.17.11-.16z"/><path class="st6" d="M26.02 18.27c-.21.23-.55.58-.73.82-.04-.35-.16-.87-.22-1.2.09.26.2.64.31.86.19-.11.44-.34.64-.48z"/><path class="st7" d="M26.02 18.27c-.21.23-.55.58-.73.82-.04-.35-.16-.87-.22-1.2.09.26.2.64.31.86.19-.11.44-.34.64-.48z"/><path class="st6" d="M25.43 18.96c-.01 0 .11-1 .11-1l-.29.95.06.19.12-.14z"/><path class="st7" d="M25.43 18.96c-.01 0 .11-1 .11-1l-.29.95.06.19.12-.14z"/><path class="st6" d="M25.97 18.31c-.19.25-.5.63-.67.89-.07-.34-.22-.85-.31-1.17.11.25.25.62.38.82.19-.13.42-.38.6-.54z"/><path class="st7" d="M25.97 18.31c-.19.25-.5.63-.67.89-.07-.34-.22-.85-.31-1.17.11.25.25.62.38.82.19-.13.42-.38.6-.54z"/><path class="st6" d="M25.43 19.05c-.01 0-.06-1-.06-1l-.13 1 .09.18.1-.18z"/><path class="st7" d="M25.43 19.05c-.01 0-.06-1-.06-1l-.13 1 .09.18.1-.18z"/><path class="st6" d="M25.95 18.36c-.18.26-.47.66-.62.93-.09-.34-.27-.85-.38-1.16.13.25.28.61.42.81.19-.14.41-.4.58-.58z"/><path class="st7" d="M25.95 18.36c-.18.26-.47.66-.62.93-.09-.34-.27-.85-.38-1.16.13.25.28.61.42.81.19-.14.41-.4.58-.58z"/><path class="st6" d="M25.49 19.14c-.01 0 .1-1.01.1-1.01l-.29.95.06.2.13-.14z"/><path class="st7" d="M25.49 19.14c-.01 0 .1-1.01.1-1.01l-.29.95.06.2.13-.14z"/><path class="st6" d="M25.92 18.46c-.16.29-.41.72-.54 1.01-.12-.32-.34-.81-.48-1.1.15.23.33.56.49.74.17-.16.37-.46.53-.65z"/><path class="st7" d="M25.92 18.46c-.16.29-.41.72-.54 1.01-.12-.32-.34-.81-.48-1.1.15.23.33.56.49.74.17-.16.37-.46.53-.65z"/><path class="st6" d="M25.45 19.23c-.01 0-.28-.96-.28-.96l.09 1.01.13.14.06-.19z"/><path class="st7" d="M25.45 19.23c-.01 0-.28-.96-.28-.96l.09 1.01.13.14.06-.19z"/><path class="st6" d="M25.91 18.57c-.16.29-.43.72-.56 1.01-.12-.32-.34-.8-.48-1.1.15.23.34.56.5.74.17-.16.37-.46.54-.65z"/><path class="st7" d="M25.91 18.57c-.16.29-.43.72-.56 1.01-.12-.32-.34-.8-.48-1.1.15.23.34.56.5.74.17-.16.37-.46.54-.65z"/><path class="st6" d="M25.47 19.41c-.01 0-.1-1.01-.1-1.01l-.09 1.01.1.17.09-.17z"/><path class="st7" d="M25.47 19.41c-.01 0-.1-1.01-.1-1.01l-.09 1.01.1.17.09-.17"/><path class="st6" d="M25.93 18.66c-.17.28-.44.71-.57 1-.11-.33-.33-.81-.46-1.11.15.23.33.57.49.75.16-.16.37-.45.54-.64z"/><path class="st7" d="M25.93 18.66c-.17.28-.44.71-.57 1-.11-.33-.33-.81-.46-1.11.15.23.33.57.49.75.16-.16.37-.45.54-.64z"/><path class="st6" d="M25.46 19.49c-.01 0-.19-.99-.19-.99l-.01 1.01.11.16.09-.18z"/><path class="st7" d="M25.46 19.49c-.01 0-.19-.99-.19-.99l-.01 1.01.11.16.09-.18z"/><path class="st6" d="M25.86 18.8c-.18.27-.47.67-.62.96-.1-.33-.29-.83-.41-1.14.14.24.3.59.45.79.18-.15.4-.43.58-.61z"/><path class="st7" d="M25.86 18.8c-.18.27-.47.67-.62.96-.1-.33-.29-.83-.41-1.14.14.24.3.59.45.79.18-.15.4-.43.58-.61z"/><path class="st6" d="M25.37 19.6c-.01 0 .08-1.01.08-1.01l-.28.96.07.2.13-.15z"/><path class="st7" d="M25.37 19.6c-.01 0 .08-1.01.08-1.01l-.28.96.07.2.13-.15z"/><path class="st6" d="M25.87 18.82c-.15.29-.4.73-.53 1.03-.13-.32-.37-.79-.51-1.08.16.22.35.55.52.72.16-.16.36-.46.52-.67z"/><path class="st7" d="M25.87 18.82c-.15.29-.4.73-.53 1.03-.13-.32-.37-.79-.51-1.08.16.22.35.55.52.72.16-.16.36-.46.52-.67z"/><path class="st6" d="M25.34 19.68c-.01 0-.31-.94-.31-.94l.12 1 .13.14.06-.2z"/><path class="st7" d="M25.34 19.68c-.01 0-.31-.94-.31-.94l.12 1 .13.14.06-.2z"/><path class="st6" d="M25.82 18.9c-.11.32-.29.81-.36 1.13-.17-.28-.48-.7-.67-.95.19.19.43.46.62.59.14-.2.29-.54.41-.77z"/><path class="st7" d="M25.82 18.9c-.11.32-.29.81-.36 1.13-.17-.28-.48-.7-.67-.95.19.19.43.46.62.59.14-.2.29-.54.41-.77z"/><path class="st6" d="M25.61 19.76c-.01 0-.34-.93-.34-.93l.15 1 .14.13.05-.2z"/><path class="st7" d="M25.61 19.76c-.01 0-.34-.93-.34-.93l.15 1 .14.13.05-.2z"/><path class="st6" d="M25.82 19c-.1.32-.28.81-.36 1.13-.18-.28-.49-.69-.67-.94.19.18.43.46.62.59.15-.2.29-.55.41-.78z"/><path class="st7" d="M25.82 19c-.1.32-.28.81-.36 1.13-.18-.28-.49-.69-.67-.94.19.18.43.46.62.59.15-.2.29-.55.41-.78z"/><path class="st6" d="M25.61 19.92c-.01 0-.43-.87-.43-.87l.25.96.15.11.03-.2z"/><path class="st7" d="M25.61 19.92c-.01 0-.43-.87-.43-.87l.25.96.15.11.03-.2z"/><path class="st6" d="M25.79 19.08c-.07.33-.19.85-.22 1.18-.21-.26-.56-.61-.78-.84.21.15.48.39.69.49.11-.22.21-.58.31-.83z"/><path class="st7" d="M25.79 19.08c-.07.33-.19.85-.22 1.18-.21-.26-.56-.61-.78-.84.21.15.48.39.69.49.11-.22.21-.58.31-.83z"/><path class="st6" d="M25.64 20.05c-.01 0-.23-.97-.23-.97l.04 1.01.12.15.07-.19z"/><path class="st7" d="M25.64 20.05c-.01 0-.23-.97-.23-.97l.04 1.01.12.15.07-.19"/><path class="st6" d="M25.79 19.18c-.04.34-.11.87-.11 1.2-.23-.23-.61-.54-.85-.73.22.12.52.32.73.4.09-.23.16-.6.23-.87z"/><path class="st7" d="M25.79 19.18c-.04.34-.11.87-.11 1.2-.23-.23-.61-.54-.85-.73.22.12.52.32.73.4.09-.23.16-.6.23-.87"/><path class="st6" d="M25.65 20.12l-.62-.7.46.85.17.06-.01-.21z"/><path class="st7" d="M25.65 20.12l-.62-.7.46.85.17.06-.01-.21z"/><path class="st6" d="M25.8 19.3c-.04.34-.11.87-.12 1.2-.23-.23-.61-.54-.85-.73.22.13.52.33.73.4.1-.24.17-.61.24-.87z"/><path class="st7" d="M25.8 19.3c-.04.34-.11.87-.12 1.2-.23-.23-.61-.54-.85-.73.22.13.52.33.73.4.1-.24.17-.61.24-.87z"/><path class="st6" d="M25.72 20.29c-.01 0-.47-.85-.47-.85l.3.95.16.1.01-.2z"/><path class="st7" d="M25.72 20.29c-.01 0-.47-.85-.47-.85l.3.95.16.1.01-.2"/><path class="st6" d="M25.83 19.44c-.02.34-.07.87-.07 1.21-.24-.21-.63-.5-.88-.68.23.11.53.29.74.36.1-.25.15-.62.21-.89z"/><path class="st7" d="M25.83 19.44c-.02.34-.07.87-.07 1.21-.24-.21-.63-.5-.88-.68.23.11.53.29.74.36.1-.25.15-.62.21-.89z"/><path class="st6" d="M25.78 20.44l-.58-.74.43.88.17.07-.02-.21z"/><path class="st7" d="M25.78 20.44l-.58-.74.43.88.17.07-.02-.21z"/><path class="st6" d="M25.84 19.6c-.02.34-.07.87-.06 1.21-.24-.21-.64-.5-.88-.67.23.11.53.29.74.35.09-.25.14-.62.2-.89z"/><path class="st7" d="M25.84 19.6c-.02.34-.07.87-.06 1.21-.24-.21-.64-.5-.88-.67.23.11.53.29.74.35.09-.25.14-.62.2-.89z"/><path class="st6" d="M25.84 20.57c-.01 0-.41-.89-.41-.89l.23.98.15.12.03-.21z"/><path class="st7" d="M25.84 20.57c-.01 0-.41-.89-.41-.89l.23.98.15.12.03-.21z"/><path class="st6" d="M25.85 19.7c.01.34.01.88.05 1.21-.26-.18-.68-.41-.94-.55.24.08.55.22.77.25.07-.25.09-.63.12-.91z"/><path class="st7" d="M25.85 19.7c.01.34.01.88.05 1.21-.26-.18-.68-.41-.94-.55.24.08.55.22.77.25.07-.25.09-.63.12-.91z"/><path class="st6" d="M25.91 20.53c0 .01-.75-.51-.75-.51l.63.7.18.01-.06-.2z"/><path class="st7" d="M25.91 20.53c0 .01-.75-.51-.75-.51l.63.7.18.01-.06-.2z"/><path class="st6" d="M25.88 19.74c.03.34.06.87.12 1.2-.27-.17-.7-.38-.97-.51.24.07.56.19.78.22.05-.26.04-.64.07-.91z"/><path class="st7" d="M25.88 19.74c.03.34.06.87.12 1.2-.27-.17-.7-.38-.97-.51.24.07.56.19.78.22.05-.26.04-.64.07-.91z"/><path class="st6" d="M25.99 20.72l-.62-.72.47.86.17.06-.02-.2z"/><path class="st7" d="M25.99 20.72l-.62-.72.47.86.17.06-.02-.2z"/><path class="st6" d="M25.93 19.87c.04.34.1.87.17 1.2-.27-.15-.71-.34-.98-.46.24.06.57.16.79.17.03-.25.01-.63.02-.91z"/><path class="st7" d="M25.93 19.87c.04.34.1.87.17 1.2-.27-.15-.71-.34-.98-.46.24.06.57.16.79.17.03-.25.01-.63.02-.91z"/><path class="st6" d="M26.11 20.84c0 .01-.74-.52-.74-.52l.63.71.18.01-.07-.2z"/><path class="st7" d="M26.11 20.84c0 .01-.74-.52-.74-.52l.63.71.18.01-.07-.2z"/><path class="st6" d="M25.95 20.02c.07.34.15.86.25 1.18-.28-.13-.73-.27-1.01-.36.24.03.58.11.8.1.02-.27-.03-.65-.04-.92z"/><path class="st7" d="M25.95 20.02c.07.34.15.86.25 1.18-.28-.13-.73-.27-1.01-.36.24.03.58.11.8.1.02-.27-.03-.65-.04-.92z"/><path class="st6" d="M26.19 20.95l-.61-.73.46.87.17.07-.02-.21z"/><path class="st7" d="M26.19 20.95l-.61-.73.46.87.17.07-.02-.21z"/><path class="st6" d="M25.99 20.11c.1.33.23.84.35 1.15-.29-.09-.75-.17-1.03-.23.24 0 .58.03.8-.01 0-.26-.08-.63-.12-.91z"/><path class="st7" d="M25.99 20.11c.1.33.23.84.35 1.15-.29-.09-.75-.17-1.03-.23.24 0 .58.03.8-.01 0-.26-.08-.63-.12-.91z"/><path class="st6" d="M26.23 20.95c0 .01-.86-.18-.86-.18l.82.41.16-.06-.12-.17z"/><path class="st7" d="M26.23 20.95c0 .01-.86-.18-.86-.18l.82.41.16-.06-.12-.17z"/><path class="st6" d="M26.05 20.21c.1.33.23.84.35 1.15-.29-.09-.75-.18-1.03-.23.24 0 .58.03.8 0-.01-.27-.09-.64-.12-.92z"/><path class="st7" d="M26.05 20.21c.1.33.23.84.35 1.15-.29-.09-.75-.18-1.03-.23.24 0 .58.03.8 0-.01-.27-.09-.64-.12-.92z"/><path class="st6" d="M26.37 21.04c0 .01-.82-.4-.82-.4l.74.6.18-.02-.1-.18z"/><path class="st7" d="M26.37 21.04c0 .01-.82-.4-.82-.4l.74.6.18-.02-.1-.18z"/><path class="st6" d="M26.01 20.27c.16.3.4.77.58 1.04-.3-.02-.77-.01-1.05 0 .24-.05.57-.1.78-.18-.07-.25-.22-.6-.31-.86z"/><path class="st7" d="M26.01 20.27c.16.3.4.77.58 1.04-.3-.02-.77-.01-1.05 0 .24-.05.57-.1.78-.18-.07-.25-.22-.6-.31-.86z"/><path class="st6" d="M26.5 21.13c0 .01-.85-.24-.85-.24l.8.45.17-.05-.12-.16z"/><path class="st7" d="M26.5 21.13c0 .01-.85-.24-.85-.24l.8.45.17-.05-.12-.16"/><path class="st6" d="M26.1 20.4c.16.3.41.77.59 1.04-.3-.02-.77 0-1.05.01.24-.06.57-.1.77-.19-.06-.26-.22-.6-.31-.86z"/><path class="st7" d="M26.1 20.4c.16.3.41.77.59 1.04-.3-.02-.77 0-1.05.01.24-.06.57-.1.77-.19-.06-.26-.22-.6-.31-.86z"/><path class="st6" d="M26.6 21.2c0 .01-.79-.48-.79-.48l.69.66h.18l-.08-.18z"/><path class="st7" d="M26.6 21.2c0 .01-.79-.48-.79-.48l.69.66h.18l-.08-.18z"/><path class="st6" d="M26.16 20.47c.19.28.47.72.68.97-.3.02-.75.1-1.03.15.23-.09.55-.18.74-.29-.08-.25-.27-.58-.39-.83z"/><path class="st7" d="M26.16 20.47c.19.28.47.72.68.97-.3.02-.75.1-1.03.15.23-.09.55-.18.74-.29-.08-.25-.27-.58-.39-.83z"/><path class="st6" d="M27.16 17.12l.62-.1-.61.01-.11.05.1.04zm-.5 4.15c0 .01-.86-.02-.86-.02l.85.25.15-.09-.14-.14z"/><path class="st7" d="M27.16 17.12l.62-.1-.61.01-.11.05.1.04zm-.5 4.15c0 .01-.86-.02-.86-.02l.85.25.15-.09-.14-.14z"/><path class="st6" d="M27.5 17.25c-.18-.05-.45-.14-.63-.18.2-.08.48-.22.66-.3-.14.09-.34.2-.44.28.1.06.28.13.41.2z"/><path class="st7" d="M27.5 17.25c-.18-.05-.45-.14-.63-.18.2-.08.48-.22.66-.3-.14.09-.34.2-.44.28.1.06.28.13.41.2z"/><path class="st6" d="M27.13 17.14l.6-.17-.62.08-.09.07.11.02z"/><path class="st7" d="M27.13 17.14l.6-.17-.62.08-.09.07.11.02z"/><path class="st6" d="M27.53 17.29c-.21-.02-.53-.06-.74-.06.16-.14.37-.37.51-.51-.09.13-.23.31-.3.43.14.06.37.1.53.14z"/><path class="st7" d="M27.53 17.29c-.21-.02-.53-.06-.74-.06.16-.14.37-.37.51-.51-.09.13-.23.31-.3.43.14.06.37.1.53.14"/><path class="st6" d="M26.91 17.18l.62-.07-.6-.02-.12.05.1.04z"/><path class="st7" d="M26.91 17.18l.62-.07-.6-.02-.12.05.1.04z"/><path class="st6" d="M27.37 17.31c-.19-.04-.48-.1-.67-.12.18-.09.45-.24.61-.34-.12.09-.3.21-.39.3.11.06.31.12.45.16z"/><path class="st7" d="M27.37 17.31c-.19-.04-.48-.1-.67-.12.18-.09.45-.24.61-.34-.12.09-.3.21-.39.3.11.06.31.12.45.16z"/><path class="st6" d="M26.86 17.17l.54-.23-.59.16-.08.07h.13z"/><path class="st7" d="M26.86 17.17l.54-.23-.59.16-.08.07h.13z"/><path class="st6" d="M27.35 17.38c-.16-.07-.4-.18-.56-.22.12-.11.29-.31.4-.43-.07.12-.18.28-.23.4.1.09.27.17.39.25z"/><path class="st7" d="M27.35 17.38c-.16-.07-.4-.18-.56-.22.12-.11.29-.31.4-.43-.07.12-.18.28-.23.4.1.09.27.17.39.25z"/><path class="st6" d="M26.53 21.19c0 .01-.88.01-.88.01l.89.22.15-.1-.16-.13zm.36-3.98l.42-.18-.46.06-.06.08.1.04z"/><path class="st7" d="M26.53 21.19c0 .01-.88.01-.88.01l.89.22.15-.1-.16-.13zm.36-3.98l.42-.18-.46.06-.06.08.1.04z"/><path class="st6" d="M26.69 21.25c0 .01-.89-.21-.89-.21l.86.42.17-.05-.14-.16z"/><path class="st7" d="M26.69 21.25c0 .01-.89-.21-.89-.21l.86.42.17-.05-.14-.16z"/><path class="st6" d="M26.84 21.31c0 .01-.89-.04-.89-.04l.89.27.15-.09-.15-.14z"/><path class="st7" d="M26.84 21.31c0 .01-.89-.04-.89-.04l.89.27.15-.09-.15-.14z"/><path class="st6" d="M26.27 20.68c.23.25.58.66.82.88-.3.05-.75.17-1.02.24.22-.11.53-.22.71-.35-.12-.23-.35-.53-.51-.77z"/><path class="st7" d="M26.27 20.68c.23.25.58.66.82.88-.3.05-.75.17-1.02.24.22-.11.53-.22.71-.35-.12-.23-.35-.53-.51-.77z"/><path class="st6" d="M26.96 21.35c0 .01-.89-.29-.89-.29l.83.5.17-.04-.11-.17z"/><path class="st7" d="M26.96 21.35c0 .01-.89-.29-.89-.29l.83.5.17-.04-.11-.17"/><path class="st6" d="M26.36 20.74c.25.23.63.6.89.8-.29.08-.71.26-.97.37.2-.13.5-.29.66-.44-.15-.24-.41-.51-.58-.73z"/><path class="st7" d="M26.36 20.74c.25.23.63.6.89.8-.29.08-.71.26-.97.37.2-.13.5-.29.66-.44-.15-.24-.41-.51-.58-.73z"/><path class="st6" d="M27.03 21.41c0 .01-.84.17-.84.17l.89.06.13-.12-.18-.11z"/><path class="st7" d="M27.03 21.41c0 .01-.84.17-.84.17l.89.06.13-.12-.18-.11z"/><path class="st6" d="M26.86 21.35c0 .01-.88.07-.88.07l.91.16.14-.11-.17-.12z"/><path class="st7" d="M26.86 21.35c0 .01-.88.07-.88.07l.91.16.14-.11-.17-.12z"/><path class="st6" d="M27.02 21.4c0 .01-.91-.15-.91-.15l.89.37.16-.07-.14-.15z"/><path class="st7" d="M27.02 21.4c0 .01-.91-.15-.91-.15l.89.37.16-.07-.14-.15z"/><path class="st6" d="M27.17 21.45c0 .01-.89.02-.89.02l.91.21.15-.1-.17-.13z"/><path class="st7" d="M27.17 21.45c0 .01-.89.02-.89.02l.91.21.15-.1-.17-.13z"/><path class="st6" d="M26.56 20.86c.25.24.63.62.88.83-.29.07-.73.22-1 .31.21-.12.52-.26.68-.4-.13-.23-.39-.51-.56-.74z"/><path class="st7" d="M26.56 20.86c.25.24.63.62.88.83-.29.07-.73.22-1 .31.21-.12.52-.26.68-.4-.13-.23-.39-.51-.56-.74z"/><path class="st6" d="M27.3 21.49c0 .01-.91-.23-.91-.23l.87.44.17-.05-.13-.16z"/><path class="st7" d="M27.3 21.49c0 .01-.91-.23-.91-.23l.87.44.17-.05-.13-.16z"/><path class="st6" d="M26.65 20.92c.27.21.68.55.95.73-.28.1-.69.31-.94.43.19-.15.47-.33.62-.49-.16-.21-.44-.47-.63-.67z"/><path class="st7" d="M26.65 20.92c.27.21.68.55.95.73-.28.1-.69.31-.94.43.19-.15.47-.33.62-.49-.16-.21-.44-.47-.63-.67z"/><path class="st6" d="M27.37 21.54c0 .01-.83.22-.83.22h.89l.12-.13-.18-.09z"/><path class="st7" d="M27.37 21.54c0 .01-.83.22-.83.22h.89l.12-.13-.18-.09z"/><path fill="#fedf00" d="M28.52 20.29l-.68-.47-.68.47.26-.75-.59-.46h.76l.25-.75.25.75h.76l-.59.46.26.75z"/><path fill="none" stroke="#010101" stroke-width=".299" d="M28.52 20.29l-.68-.47-.68.47.26-.75-.59-.46h.76l.25-.75.25.75h.76l-.59.46.26.75z"/><path d="M3.27.24H52.4c1.67 0 3.03 1.36 3.03 3.03V35.6c0 1.67-1.36 3.03-3.03 3.03H3.27A3.04 3.04 0 01.24 35.6V3.27C.24 1.6 1.6.24 3.27.24h0z" fill="none" stroke="#ccc" stroke-width=".48" stroke-miterlimit="22.926"/></svg>